<svg width="28" height="28" viewBox="0 0 28 28" fill="none" xmlns="http://www.w3.org/2000/svg">
<g id="Frame 427319545">
<circle id="Ellipse 97" cx="14" cy="14" r="14" fill="white"/>
<g id="Clip path group">
<mask id="mask0_449_644" style="mask-type:luminance" maskUnits="userSpaceOnUse" x="4" y="4" width="20" height="20">
<g id="clip0_760_7294">
<path id="Vector" d="M24 4H4V24H24V4Z" fill="white"/>
</g>
</mask>
<g mask="url(#mask0_449_644)">
<g id="Group">
<path id="Vector_2" d="M23.6 14.2271C23.6 13.518 23.5364 12.8362 23.4182 12.1816H14V16.0498H19.3818C19.15 17.2998 18.4455 18.3589 17.3864 19.068V21.5771H20.6182C22.5091 19.8362 23.6 17.2725 23.6 14.2271Z" fill="#4285F4"/>
<path id="Vector_3" d="M14.0001 23.9999C16.7001 23.9999 18.9637 23.1044 20.6183 21.5772L17.3865 19.0681C16.491 19.6681 15.3455 20.0226 14.0001 20.0226C11.3955 20.0226 9.19102 18.2635 8.40462 15.8999H5.06372V18.4908C6.70922 21.759 10.091 23.9999 14.0001 23.9999Z" fill="#34A853"/>
<path id="Vector_4" d="M8.4045 15.9002C8.2045 15.3002 8.0909 14.6593 8.0909 14.0002C8.0909 13.3411 8.2045 12.7002 8.4045 12.1002V9.50928H5.0636C4.3864 10.8593 4 12.3866 4 14.0002C4 15.6138 4.3864 17.1411 5.0636 18.4911L8.4045 15.9002Z" fill="#FBBC04"/>
<path id="Vector_5" d="M14.0001 7.9773C15.4683 7.9773 16.7864 8.4818 17.8228 9.4727L20.691 6.6045C18.9592 4.9909 16.6955 4 14.0001 4C10.091 4 6.70922 6.2409 5.06372 9.5091L8.40462 12.1C9.19102 9.7364 11.3955 7.9773 14.0001 7.9773Z" fill="#E94235"/>
</g>
</g>
</g>
</g>
</svg>
