<?xml version="1.0" encoding="UTF-8"?>
<!DOCTYPE svg PUBLIC "-//W3C//DTD SVG 1.1//EN" "http://www.w3.org/Graphics/SVG/1.1/DTD/svg11.dtd">
<svg xmlns="http://www.w3.org/2000/svg" version="1.1" width="1170px" height="1461px" style="shape-rendering:geometricPrecision; text-rendering:geometricPrecision; image-rendering:optimizeQuality; fill-rule:evenodd; clip-rule:evenodd" xmlns:xlink="http://www.w3.org/1999/xlink">
<g><path style="opacity:0.995" fill="#5776d6" d="M 573.5,-0.5 C 580.833,-0.5 588.167,-0.5 595.5,-0.5C 636.427,10.9636 654.594,37.9636 650,80.5C 648.869,84.8938 647.535,89.2272 646,93.5C 636.821,109.861 627.655,126.194 618.5,142.5C 617.512,143.795 616.512,145.128 615.5,146.5C 607.425,160.311 599.592,174.311 592,188.5C 590.014,192.306 587.514,195.639 584.5,198.5C 582.912,197.99 581.745,196.99 581,195.5C 571.821,179.139 562.655,162.806 553.5,146.5C 552.974,144.77 551.974,143.436 550.5,142.5C 540.059,124.877 530.226,106.877 521,88.5C 512.042,51.6806 523.875,23.8473 556.5,5C 562.137,2.6825 567.803,0.849164 573.5,-0.5 Z"/></g>
<g><path style="opacity:1" fill="#f1f2ea" d="M 626.5,30.5 C 626.5,31.5 626.5,32.5 626.5,33.5C 625.448,33.3505 624.448,33.5172 623.5,34C 623.833,34.3333 624.167,34.6667 624.5,35C 623.692,35.3076 623.025,35.8076 622.5,36.5C 625.692,40.904 628.025,45.7374 629.5,51C 629,51.5 628.5,52 628,52.5C 626.414,51.624 624.914,50.624 623.5,49.5C 621.853,45.5415 619.686,41.8748 617,38.5C 616.548,35.1228 615.882,31.7895 615,28.5C 612.194,26.6053 609.86,24.2719 608,21.5C 604.423,21.1577 600.923,21.8244 597.5,23.5C 597.5,24.5 597.5,25.5 597.5,26.5C 594.5,26.5 591.5,26.5 588.5,26.5C 587.791,25.596 586.791,25.2627 585.5,25.5C 585.5,24.5 585.5,23.5 585.5,22.5C 584.5,22.5 583.5,22.5 582.5,22.5C 582.5,21.5 582.5,20.5 582.5,19.5C 577.34,20.2836 572.34,21.1169 567.5,22C 567.833,21.6667 568.167,21.3333 568.5,21C 565.534,19.0904 564.867,16.5904 566.5,13.5C 590.142,6.60603 610.142,12.2727 626.5,30.5 Z"/></g>
<g><path style="opacity:1" fill="#b2ad9b" d="M 555.5,19.5 C 558.951,20.7237 561.284,23.057 562.5,26.5C 561.509,28.3231 560.176,29.8231 558.5,31C 555.574,31.2178 552.74,31.7178 550,32.5C 549.678,34.6889 550.178,36.6889 551.5,38.5C 552.263,39.2679 553.263,39.7679 554.5,40C 551.691,41.956 548.691,42.456 545.5,41.5C 544.614,40.675 544.281,39.675 544.5,38.5C 545.469,34.5642 547.469,31.2309 550.5,28.5C 549.752,26.5841 549.752,24.5841 550.5,22.5C 551.899,21.1103 553.566,20.1103 555.5,19.5 Z"/></g>
<g><path style="opacity:1" fill="#cec9be" d="M 588.5,26.5 C 589.172,27.2674 590.005,27.9341 591,28.5C 597.654,26.0755 604.154,26.5755 610.5,30C 612.669,31.3277 613.002,32.9943 611.5,35C 614.385,37.7713 616.718,40.938 618.5,44.5C 617.5,44.5 616.5,44.5 615.5,44.5C 615.649,43.448 615.483,42.448 615,41.5C 612.821,38.9891 610.321,36.8224 607.5,35C 608.833,34.3333 608.833,33.6667 607.5,33C 603.675,32.2944 600.008,31.1277 596.5,29.5C 592.502,31.0558 588.668,30.7225 585,28.5C 583.584,29.5733 582.25,29.5733 581,28.5C 580.392,30.0664 579.558,31.3998 578.5,32.5C 578.047,31.5416 577.381,30.7083 576.5,30C 575.175,30.1484 574.008,29.9817 573,29.5C 570.252,30.9426 568.085,32.9426 566.5,35.5C 564.801,35.3398 563.134,35.5065 561.5,36C 562.451,36.7175 562.617,37.5509 562,38.5C 560.215,37.7599 558.382,37.0933 556.5,36.5C 555.818,37.2427 555.151,37.9094 554.5,38.5C 553.15,37.1765 553.317,36.1765 555,35.5C 559.2,34.219 563.367,32.8856 567.5,31.5C 569.578,29.5717 570.245,27.405 569.5,25C 571.969,22.9782 574.135,23.1449 576,25.5C 578.032,20.2759 580.199,20.2759 582.5,25.5C 584.396,26.4656 586.396,26.7989 588.5,26.5 Z"/></g>
<g><path style="opacity:1" fill="#d9d7cc" d="M 566.5,13.5 C 564.867,16.5904 565.534,19.0904 568.5,21C 568.167,21.3333 567.833,21.6667 567.5,22C 572.34,21.1169 577.34,20.2836 582.5,19.5C 582.5,20.5 582.5,21.5 582.5,22.5C 583.5,22.5 584.5,22.5 585.5,22.5C 585.5,23.5 585.5,24.5 585.5,25.5C 586.791,25.2627 587.791,25.596 588.5,26.5C 586.396,26.7989 584.396,26.4656 582.5,25.5C 580.199,20.2759 578.032,20.2759 576,25.5C 574.135,23.1449 571.969,22.9782 569.5,25C 570.245,27.405 569.578,29.5717 567.5,31.5C 563.367,32.8856 559.2,34.219 555,35.5C 553.317,36.1765 553.15,37.1765 554.5,38.5C 553.5,38.5 552.5,38.5 551.5,38.5C 550.178,36.6889 549.678,34.6889 550,32.5C 552.74,31.7178 555.574,31.2178 558.5,31C 560.176,29.8231 561.509,28.3231 562.5,26.5C 561.284,23.057 558.951,20.7237 555.5,19.5C 558.678,16.7417 562.345,14.7417 566.5,13.5 Z"/></g>
<g><path style="opacity:1" fill="#d9d9d1" d="M 626.5,30.5 C 630.767,34.6953 633.767,39.6953 635.5,45.5C 635.5,46.8333 635.5,48.1667 635.5,49.5C 635.657,50.8734 635.49,52.2068 635,53.5C 634.667,53.1667 634.333,52.8333 634,52.5C 631.695,54.9305 628.862,55.9305 625.5,55.5C 623.873,54.0093 622.207,52.5093 620.5,51C 620.833,50 621.167,49 621.5,48C 620.456,46.8261 619.456,45.6594 618.5,44.5C 616.718,40.938 614.385,37.7713 611.5,35C 613.002,32.9943 612.669,31.3277 610.5,30C 604.154,26.5755 597.654,26.0755 591,28.5C 590.005,27.9341 589.172,27.2674 588.5,26.5C 591.5,26.5 594.5,26.5 597.5,26.5C 597.5,25.5 597.5,24.5 597.5,23.5C 600.923,21.8244 604.423,21.1577 608,21.5C 609.86,24.2719 612.194,26.6053 615,28.5C 615.882,31.7895 616.548,35.1228 617,38.5C 619.686,41.8748 621.853,45.5415 623.5,49.5C 624.914,50.624 626.414,51.624 628,52.5C 628.5,52 629,51.5 629.5,51C 628.025,45.7374 625.692,40.904 622.5,36.5C 623.025,35.8076 623.692,35.3076 624.5,35C 624.167,34.6667 623.833,34.3333 623.5,34C 624.448,33.5172 625.448,33.3505 626.5,33.5C 626.5,32.5 626.5,31.5 626.5,30.5 Z"/></g>
<g><path style="opacity:1" fill="#b6aea2" d="M 618.5,44.5 C 619.456,45.6594 620.456,46.8261 621.5,48C 621.167,49 620.833,50 620.5,51C 622.207,52.5093 623.873,54.0093 625.5,55.5C 623.5,54.8333 621.5,54.1667 619.5,53.5C 619.815,50.7892 619.148,48.4559 617.5,46.5C 613.332,45.5035 609.666,43.5035 606.5,40.5C 604.538,35.5281 601.871,35.1948 598.5,39.5C 596.568,38.8545 595.401,37.5212 595,35.5C 594.667,35.8333 594.333,36.1667 594,36.5C 591.246,33.9484 588.246,32.6151 585,32.5C 583.748,35.0135 583.248,37.6802 583.5,40.5C 582.178,40.33 581.011,40.6634 580,41.5C 579.667,39.5 579.333,37.5 579,35.5C 578.444,37.5951 577.944,37.7618 577.5,36C 577.989,34.8615 578.322,33.6948 578.5,32.5C 579.558,31.3998 580.392,30.0664 581,28.5C 582.25,29.5733 583.584,29.5733 585,28.5C 588.668,30.7225 592.502,31.0558 596.5,29.5C 600.008,31.1277 603.675,32.2944 607.5,33C 608.833,33.6667 608.833,34.3333 607.5,35C 610.321,36.8224 612.821,38.9891 615,41.5C 615.483,42.448 615.649,43.448 615.5,44.5C 616.5,44.5 617.5,44.5 618.5,44.5 Z"/></g>
<g><path style="opacity:1" fill="#a79e90" d="M 578.5,32.5 C 578.322,33.6948 577.989,34.8615 577.5,36C 577.944,37.7618 578.444,37.5951 579,35.5C 579.333,37.5 579.667,39.5 580,41.5C 581.011,40.6634 582.178,40.33 583.5,40.5C 583.248,37.6802 583.748,35.0135 585,32.5C 588.246,32.6151 591.246,33.9484 594,36.5C 594.333,36.1667 594.667,35.8333 595,35.5C 595.401,37.5212 596.568,38.8545 598.5,39.5C 601.871,35.1948 604.538,35.5281 606.5,40.5C 602.176,38.2263 599.009,39.5597 597,44.5C 594.422,38.1508 592.255,38.4842 590.5,45.5C 593.191,45.5633 594.024,47.2299 593,50.5C 591.229,51.3041 589.729,52.4708 588.5,54C 589.449,54.6172 590.282,54.4506 591,53.5C 591.698,54.6906 592.531,55.6906 593.5,56.5C 590.525,56.2866 587.858,55.2866 585.5,53.5C 585.931,52.7065 586.265,51.8732 586.5,51C 584.484,48.4112 582.984,45.5778 582,42.5C 581.667,44.8333 581.333,47.1667 581,49.5C 580.667,48.1667 580.333,46.8333 580,45.5C 579.386,48.8243 578.22,51.8243 576.5,54.5C 575.167,54.8333 573.833,55.1667 572.5,55.5C 575.141,51.2727 576.808,46.9393 577.5,42.5C 574.611,39.9437 571.277,38.277 567.5,37.5C 567.137,36.8165 566.804,36.1499 566.5,35.5C 568.085,32.9426 570.252,30.9426 573,29.5C 574.008,29.9817 575.175,30.1484 576.5,30C 577.381,30.7083 578.047,31.5416 578.5,32.5 Z"/></g>
<g><path style="opacity:1" fill="#593a30" d="M 545.5,27.5 C 544.569,32.6241 543.235,37.6241 541.5,42.5C 539.379,42.6747 537.379,42.3414 535.5,41.5C 537.677,35.9927 541.01,31.3261 545.5,27.5 Z"/></g>
<g><path style="opacity:1" fill="#877866" d="M 550.5,22.5 C 549.752,24.5841 549.752,26.5841 550.5,28.5C 547.469,31.2309 545.469,34.5642 544.5,38.5C 542.465,42.2498 540.799,46.2498 539.5,50.5C 537.984,48.0638 535.984,46.0638 533.5,44.5C 533.932,43.2905 534.599,42.2905 535.5,41.5C 537.379,42.3414 539.379,42.6747 541.5,42.5C 543.235,37.6241 544.569,32.6241 545.5,27.5C 546.833,25.5 548.5,23.8333 550.5,22.5 Z"/></g>
<g><path style="opacity:1" fill="#423229" d="M 562.5,41.5 C 563.167,41.8333 563.833,42.1667 564.5,42.5C 566.203,41.3398 566.869,42.0065 566.5,44.5C 569.9,44.731 571.9,46.5643 572.5,50C 569.965,50.9282 568.965,52.7615 569.5,55.5C 567.857,55.4802 566.524,56.1468 565.5,57.5C 560.652,56.3722 555.985,55.0388 551.5,53.5C 556.518,54.371 561.518,54.0377 566.5,52.5C 567.735,50.2271 567.402,48.3938 565.5,47C 562.18,45.4933 558.847,45.3266 555.5,46.5C 555.389,45.8826 555.056,45.3826 554.5,45C 556.167,44.6667 557.833,44.3333 559.5,44C 560.078,42.583 561.078,41.7496 562.5,41.5 Z"/></g>
<g><path style="opacity:1" fill="#978b7e" d="M 606.5,40.5 C 609.666,43.5035 613.332,45.5035 617.5,46.5C 611.896,45.4124 606.229,44.7457 600.5,44.5C 601.093,48.8936 599.76,52.5602 596.5,55.5C 598.616,57.3999 599.949,59.7332 600.5,62.5C 598.816,61.4728 597.149,60.4728 595.5,59.5C 594.833,58.5 594.167,57.5 593.5,56.5C 592.531,55.6906 591.698,54.6906 591,53.5C 590.282,54.4506 589.449,54.6172 588.5,54C 589.729,52.4708 591.229,51.3041 593,50.5C 594.024,47.2299 593.191,45.5633 590.5,45.5C 592.255,38.4842 594.422,38.1508 597,44.5C 599.009,39.5597 602.176,38.2263 606.5,40.5 Z"/></g>
<g><path style="opacity:1" fill="#76675d" d="M 617.5,46.5 C 619.148,48.4559 619.815,50.7892 619.5,53.5C 617.168,52.8383 616.501,51.505 617.5,49.5C 614.06,47.7765 610.394,47.1098 606.5,47.5C 606.5,48.5 606.5,49.5 606.5,50.5C 603.167,49.8333 601.167,51.1667 600.5,54.5C 601.747,56.0421 601.747,57.5421 600.5,59C 601.665,60.9917 602.998,62.825 604.5,64.5C 603.833,64.5 603.167,64.5 602.5,64.5C 601.5,64.1667 600.833,63.5 600.5,62.5C 599.949,59.7332 598.616,57.3999 596.5,55.5C 599.76,52.5602 601.093,48.8936 600.5,44.5C 606.229,44.7457 611.896,45.4124 617.5,46.5 Z"/></g>
<g><path style="opacity:1" fill="#736356" d="M 571.5,55.5 C 568.603,56.4299 566.27,58.0966 564.5,60.5C 562.167,62.1667 560.167,64.1667 558.5,66.5C 557.883,66.6107 557.383,66.944 557,67.5C 555.559,66.13 553.892,65.13 552,64.5C 551.383,63.5509 551.549,62.7175 552.5,62C 550.139,58.3151 547.806,54.6485 545.5,51C 545.748,49.2509 546.748,48.4176 548.5,48.5C 549.075,50.4113 550.075,52.078 551.5,53.5C 555.985,55.0388 560.652,56.3722 565.5,57.5C 566.524,56.1468 567.857,55.4802 569.5,55.5C 568.965,52.7615 569.965,50.9282 572.5,50C 571.9,46.5643 569.9,44.731 566.5,44.5C 566.869,42.0065 566.203,41.3398 564.5,42.5C 565.572,40.1602 567.239,39.8269 569.5,41.5C 571.412,43.6572 573.079,45.9906 574.5,48.5C 572.666,50.4983 571.666,52.8316 571.5,55.5 Z"/></g>
<g><path style="opacity:1" fill="#c4bcb2" d="M 593.5,56.5 C 594.167,57.5 594.833,58.5 595.5,59.5C 589.387,56.7225 583.053,55.0558 576.5,54.5C 578.22,51.8243 579.386,48.8243 580,45.5C 580.333,46.8333 580.667,48.1667 581,49.5C 581.333,47.1667 581.667,44.8333 582,42.5C 582.984,45.5778 584.484,48.4112 586.5,51C 586.265,51.8732 585.931,52.7065 585.5,53.5C 587.858,55.2866 590.525,56.2866 593.5,56.5 Z"/></g>
<g><path style="opacity:1" fill="#514741" d="M 619.5,53.5 C 621.5,54.1667 623.5,54.8333 625.5,55.5C 625.5,55.8333 625.5,56.1667 625.5,56.5C 626.72,60.1744 625.72,63.1744 622.5,65.5C 619.619,66.5249 616.953,68.0249 614.5,70C 614.957,70.414 615.291,70.914 615.5,71.5C 614.04,73.4224 612.373,74.0891 610.5,73.5C 609.749,74.376 609.249,75.376 609,76.5C 608.056,72.2324 606.556,68.2324 604.5,64.5C 602.998,62.825 601.665,60.9917 600.5,59C 601.747,57.5421 601.747,56.0421 600.5,54.5C 601.167,51.1667 603.167,49.8333 606.5,50.5C 606.5,49.5 606.5,48.5 606.5,47.5C 610.394,47.1098 614.06,47.7765 617.5,49.5C 616.501,51.505 617.168,52.8383 619.5,53.5 Z"/></g>
<g><path style="opacity:1" fill="#0e0c0a" d="M 615.5,53.5 C 618.697,55.934 621.697,58.6007 624.5,61.5C 621.628,64.1458 618.295,64.9792 614.5,64C 610.978,62.3522 607.644,60.5189 604.5,58.5C 605.993,52.6035 609.66,50.9368 615.5,53.5 Z"/></g>
<g><path style="opacity:1" fill="#372923" d="M 615.5,53.5 C 609.66,50.9368 605.993,52.6035 604.5,58.5C 601.901,56.2134 602.234,54.0467 605.5,52C 607.556,51.6892 609.556,51.1892 611.5,50.5C 613.261,51.0351 614.594,52.0351 615.5,53.5 Z"/></g>
<g><path style="opacity:1" fill="#564128" d="M 533.5,44.5 C 535.984,46.0638 537.984,48.0638 539.5,50.5C 539.674,52.861 540.007,55.1944 540.5,57.5C 540.5,59.1667 540.5,60.8333 540.5,62.5C 538.692,62.4914 537.025,62.9914 535.5,64C 534.321,67.2094 532.321,69.7094 529.5,71.5C 528.807,62.1378 530.14,53.1378 533.5,44.5 Z"/></g>
<g><path style="opacity:1" fill="#4d3d2e" d="M 540.5,57.5 C 541.482,61.3164 542.149,65.3164 542.5,69.5C 541.123,74.4109 539.957,79.4109 539,84.5C 537.483,86.2395 535.983,87.9062 534.5,89.5C 531.67,83.8346 530.003,77.8346 529.5,71.5C 532.321,69.7094 534.321,67.2094 535.5,64C 537.025,62.9914 538.692,62.4914 540.5,62.5C 540.5,60.8333 540.5,59.1667 540.5,57.5 Z"/></g>
<g><path style="opacity:1" fill="#918775" d="M 566.5,35.5 C 566.804,36.1499 567.137,36.8165 567.5,37.5C 571.277,38.277 574.611,39.9437 577.5,42.5C 576.808,46.9393 575.141,51.2727 572.5,55.5C 572.167,55.5 571.833,55.5 571.5,55.5C 571.666,52.8316 572.666,50.4983 574.5,48.5C 573.079,45.9906 571.412,43.6572 569.5,41.5C 567.239,39.8269 565.572,40.1602 564.5,42.5C 563.833,42.1667 563.167,41.8333 562.5,41.5C 559.74,38.8415 557.406,39.3415 555.5,43C 553.167,43.3333 550.833,43.6667 548.5,44C 548.043,44.414 547.709,44.914 547.5,45.5C 548.243,46.1818 548.909,46.8485 549.5,47.5C 548.833,47.5 548.5,47.8333 548.5,48.5C 546.748,48.4176 545.748,49.2509 545.5,51C 547.806,54.6485 550.139,58.3151 552.5,62C 551.549,62.7175 551.383,63.5509 552,64.5C 553.892,65.13 555.559,66.13 557,67.5C 557.383,66.944 557.883,66.6107 558.5,66.5C 557.92,68.7488 556.587,70.4154 554.5,71.5C 552.433,74.7439 551.099,78.4105 550.5,82.5C 549.395,80.3886 547.729,79.0553 545.5,78.5C 544.367,75.4435 543.367,72.4435 542.5,69.5C 542.149,65.3164 541.482,61.3164 540.5,57.5C 540.007,55.1944 539.674,52.861 539.5,50.5C 540.799,46.2498 542.465,42.2498 544.5,38.5C 544.281,39.675 544.614,40.675 545.5,41.5C 548.691,42.456 551.691,41.956 554.5,40C 553.263,39.7679 552.263,39.2679 551.5,38.5C 552.5,38.5 553.5,38.5 554.5,38.5C 555.151,37.9094 555.818,37.2427 556.5,36.5C 558.382,37.0933 560.215,37.7599 562,38.5C 562.617,37.5509 562.451,36.7175 561.5,36C 563.134,35.5065 564.801,35.3398 566.5,35.5 Z"/></g>
<g><path style="opacity:1" fill="#0c0805" d="M 551.5,53.5 C 550.075,52.078 549.075,50.4113 548.5,48.5C 548.5,47.8333 548.833,47.5 549.5,47.5C 551.379,46.6586 553.379,46.3253 555.5,46.5C 558.847,45.3266 562.18,45.4933 565.5,47C 567.402,48.3938 567.735,50.2271 566.5,52.5C 561.518,54.0377 556.518,54.371 551.5,53.5 Z"/></g>
<g><path style="opacity:1" fill="#5e5247" d="M 562.5,41.5 C 561.078,41.7496 560.078,42.583 559.5,44C 557.833,44.3333 556.167,44.6667 554.5,45C 555.056,45.3826 555.389,45.8826 555.5,46.5C 553.379,46.3253 551.379,46.6586 549.5,47.5C 548.909,46.8485 548.243,46.1818 547.5,45.5C 547.709,44.914 548.043,44.414 548.5,44C 550.833,43.6667 553.167,43.3333 555.5,43C 557.406,39.3415 559.74,38.8415 562.5,41.5 Z"/></g>
<g><path style="opacity:1" fill="#bebcb4" d="M 598.5,89.5 C 596.037,91.1119 594.037,90.6119 592.5,88C 593.615,84.6598 595.615,81.9932 598.5,80C 596.699,79.6827 596.366,79.016 597.5,78C 596.901,76.3775 596.234,74.8775 595.5,73.5C 595.489,71.9826 594.823,70.8159 593.5,70C 587.913,65.9274 581.579,64.094 574.5,64.5C 577.002,62.3065 579.836,61.9732 583,63.5C 588.559,60.7492 592.392,61.9159 594.5,67C 595.428,67.3879 596.095,68.0546 596.5,69C 597.194,72.5818 598.194,76.0818 599.5,79.5C 599.594,81.9116 598.594,83.745 596.5,85C 597.833,86 599.167,87 600.5,88C 599.584,88.2784 598.918,88.7784 598.5,89.5 Z"/></g>
<g><path style="opacity:1" fill="#898b85" d="M 635.5,45.5 C 637.832,50.1258 639.165,55.1258 639.5,60.5C 637.738,60.3573 636.071,60.6906 634.5,61.5C 632.626,63.9145 631.293,66.5812 630.5,69.5C 629.12,69.0377 628.453,68.0377 628.5,66.5C 630.979,63.582 633.479,60.582 636,57.5C 636.801,54.633 636.634,51.9664 635.5,49.5C 635.5,48.1667 635.5,46.8333 635.5,45.5 Z"/></g>
<g><path style="opacity:1" fill="#3a3a36" d="M 574.5,64.5 C 581.579,64.094 587.913,65.9274 593.5,70C 594.823,70.8159 595.489,71.9826 595.5,73.5C 595.802,76.0593 595.468,78.3926 594.5,80.5C 593.032,74.0305 589.032,70.3638 582.5,69.5C 580.576,69.1064 578.743,69.773 577,71.5C 575.874,70.0564 574.374,69.3898 572.5,69.5C 570.307,69.7186 568.307,70.3852 566.5,71.5C 566.557,70.391 566.89,69.391 567.5,68.5C 569.833,67.1667 572.167,65.8333 574.5,64.5 Z"/></g>
<g><path style="opacity:1" fill="#abafa7" d="M 635.5,49.5 C 636.634,51.9664 636.801,54.633 636,57.5C 633.479,60.582 630.979,63.582 628.5,66.5C 628.453,68.0377 629.12,69.0377 630.5,69.5C 629.449,73.2687 628.116,76.9354 626.5,80.5C 625.751,79.469 625.085,78.3024 624.5,77C 625.648,71.7323 626.648,66.399 627.5,61C 627.431,59.0145 626.765,57.5145 625.5,56.5C 625.5,56.1667 625.5,55.8333 625.5,55.5C 628.862,55.9305 631.695,54.9305 634,52.5C 634.333,52.8333 634.667,53.1667 635,53.5C 635.49,52.2068 635.657,50.8734 635.5,49.5 Z"/></g>
<g><path style="opacity:1" fill="#070705" d="M 594.5,80.5 C 593.877,82.7105 592.877,84.7105 591.5,86.5C 589.879,86.7869 588.879,87.7869 588.5,89.5C 586.955,90.4519 585.288,90.7852 583.5,90.5C 584.134,94.467 586.467,96.8003 590.5,97.5C 590.446,99.632 589.446,100.965 587.5,101.5C 584.558,100.696 581.891,99.3622 579.5,97.5C 579.461,95.6412 580.294,94.3079 582,93.5C 582.381,89.723 581.714,89.723 580,93.5C 578.89,91.9632 577.39,91.2965 575.5,91.5C 575.5,90.5 575.5,89.5 575.5,88.5C 571.871,88.5175 568.871,87.1842 566.5,84.5C 565.305,80.12 565.305,75.7867 566.5,71.5C 568.307,70.3852 570.307,69.7186 572.5,69.5C 574.374,69.3898 575.874,70.0564 577,71.5C 578.743,69.773 580.576,69.1064 582.5,69.5C 589.032,70.3638 593.032,74.0305 594.5,80.5 Z"/></g>
<g><path style="opacity:1" fill="#b3b1a0" d="M 564.5,60.5 C 564.414,61.4959 564.748,62.3292 565.5,63C 563.469,63.6322 561.802,64.7988 560.5,66.5C 562.029,69.7568 564.362,70.4234 567.5,68.5C 566.89,69.391 566.557,70.391 566.5,71.5C 565.5,71.5 564.5,71.5 563.5,71.5C 563.5,72.5 563.5,73.5 563.5,74.5C 561.45,74.9612 559.45,75.6279 557.5,76.5C 555.227,75.6249 554.227,73.9582 554.5,71.5C 556.587,70.4154 557.92,68.7488 558.5,66.5C 560.167,64.1667 562.167,62.1667 564.5,60.5 Z"/></g>
<g><path style="opacity:1" fill="#6c8fac" d="M 639.5,60.5 C 640.465,72.0223 638.131,82.6889 632.5,92.5C 631.243,89.5726 629.243,87.2393 626.5,85.5C 626.5,83.8333 626.5,82.1667 626.5,80.5C 628.116,76.9354 629.449,73.2687 630.5,69.5C 631.293,66.5812 632.626,63.9145 634.5,61.5C 636.071,60.6906 637.738,60.3573 639.5,60.5 Z"/></g>
<g><path style="opacity:1" fill="#87887d" d="M 625.5,56.5 C 626.765,57.5145 627.431,59.0145 627.5,61C 626.648,66.399 625.648,71.7323 624.5,77C 625.085,78.3024 625.751,79.469 626.5,80.5C 626.5,82.1667 626.5,83.8333 626.5,85.5C 625.504,85.4142 624.671,85.7476 624,86.5C 622.614,89.733 621.447,93.0664 620.5,96.5C 620.35,101.099 619.35,105.432 617.5,109.5C 616.564,110.974 615.23,111.974 613.5,112.5C 612.316,111.312 612.316,110.145 613.5,109C 612.5,108.667 611.5,108.333 610.5,108C 613.222,105.053 614.722,101.553 615,97.5C 620.437,93.514 622.77,88.1807 622,81.5C 620.007,83.3782 617.841,83.7115 615.5,82.5C 616.747,80.677 617.414,78.677 617.5,76.5C 618.5,76.5 619.5,76.5 620.5,76.5C 620.719,75.325 620.386,74.325 619.5,73.5C 618.391,74.5896 617.391,74.5896 616.5,73.5C 618.14,70.5319 620.14,67.8652 622.5,65.5C 625.72,63.1744 626.72,60.1744 625.5,56.5 Z"/></g>
<g><path style="opacity:1" fill="#726e61" d="M 566.5,71.5 C 565.305,75.7867 565.305,80.12 566.5,84.5C 566.567,85.9587 566.234,87.2921 565.5,88.5C 562.911,88.461 560.911,89.461 559.5,91.5C 559.297,89.6096 559.963,88.1096 561.5,87C 560.944,86.6174 560.611,86.1174 560.5,85.5C 561.117,85.3893 561.617,85.056 562,84.5C 563.043,81.2432 563.543,77.9099 563.5,74.5C 563.5,73.5 563.5,72.5 563.5,71.5C 564.5,71.5 565.5,71.5 566.5,71.5 Z"/></g>
<g><path style="opacity:1" fill="#e9ece7" d="M 576.5,54.5 C 583.053,55.0558 589.387,56.7225 595.5,59.5C 597.149,60.4728 598.816,61.4728 600.5,62.5C 600.833,63.5 601.5,64.1667 602.5,64.5C 606.06,72.7451 608.06,81.4118 608.5,90.5C 605.354,90.8821 602.354,90.8821 599.5,90.5C 598.833,90.5 598.5,90.1667 598.5,89.5C 598.918,88.7784 599.584,88.2784 600.5,88C 599.167,87 597.833,86 596.5,85C 598.594,83.745 599.594,81.9116 599.5,79.5C 598.194,76.0818 597.194,72.5818 596.5,69C 596.095,68.0546 595.428,67.3879 594.5,67C 592.392,61.9159 588.559,60.7492 583,63.5C 579.836,61.9732 577.002,62.3065 574.5,64.5C 572.167,65.8333 569.833,67.1667 567.5,68.5C 564.362,70.4234 562.029,69.7568 560.5,66.5C 561.802,64.7988 563.469,63.6322 565.5,63C 564.748,62.3292 564.414,61.4959 564.5,60.5C 566.27,58.0966 568.603,56.4299 571.5,55.5C 571.833,55.5 572.167,55.5 572.5,55.5C 573.833,55.1667 575.167,54.8333 576.5,54.5 Z"/></g>
<g><path style="opacity:1" fill="#4d4e50" d="M -0.5,82.5 C 154.167,82.5 308.833,82.5 463.5,82.5C 463.5,102.5 463.5,122.5 463.5,142.5C 492.5,142.5 521.5,142.5 550.5,142.5C 551.974,143.436 552.974,144.77 553.5,146.5C 522.5,146.5 491.5,146.5 460.5,146.5C 460.5,126.167 460.5,105.833 460.5,85.5C 306.833,85.5 153.167,85.5 -0.5,85.5C -0.5,84.5 -0.5,83.5 -0.5,82.5 Z"/></g>
<g><path style="opacity:1" fill="#202326" d="M -0.5,85.5 C 153.167,85.5 306.833,85.5 460.5,85.5C 460.5,105.833 460.5,126.167 460.5,146.5C 491.5,146.5 522.5,146.5 553.5,146.5C 562.655,162.806 571.821,179.139 581,195.5C 581.745,196.99 582.912,197.99 584.5,198.5C 587.514,195.639 590.014,192.306 592,188.5C 599.592,174.311 607.425,160.311 615.5,146.5C 697.5,146.5 779.5,146.5 861.5,146.5C 861.5,148.167 861.5,149.833 861.5,151.5C 882.833,151.5 904.167,151.5 925.5,151.5C 925.5,165.167 925.5,178.833 925.5,192.5C 947.167,192.5 968.833,192.5 990.5,192.5C 990.5,204.833 990.5,217.167 990.5,229.5C 1003.17,229.5 1015.83,229.5 1028.5,229.5C 1028.5,194.167 1028.5,158.833 1028.5,123.5C 1075.5,123.5 1122.5,123.5 1169.5,123.5C 1169.5,180.833 1169.5,238.167 1169.5,295.5C 1008.17,295.5 846.833,295.5 685.5,295.5C 685.5,301.167 685.5,306.833 685.5,312.5C 679.833,312.5 674.167,312.5 668.5,312.5C 668.5,306.833 668.5,301.167 668.5,295.5C 551.5,295.5 434.5,295.5 317.5,295.5C 317.5,276.167 317.5,256.833 317.5,237.5C 271.5,237.5 225.5,237.5 179.5,237.5C 179.5,253.833 179.5,270.167 179.5,286.5C 167.833,286.5 156.167,286.5 144.5,286.5C 144.5,275.167 144.5,263.833 144.5,252.5C 138.833,252.5 133.167,252.5 127.5,252.5C 127.5,247.5 127.5,242.5 127.5,237.5C 84.8333,237.5 42.1667,237.5 -0.5,237.5C -0.5,186.833 -0.5,136.167 -0.5,85.5 Z"/></g>
<g><path style="opacity:1" fill="#587288" d="M 542.5,69.5 C 543.367,72.4435 544.367,75.4435 545.5,78.5C 545.657,79.8734 545.49,81.2068 545,82.5C 542.249,86.402 539.749,90.402 537.5,94.5C 536.263,93.0351 535.263,91.3684 534.5,89.5C 535.983,87.9062 537.483,86.2395 539,84.5C 539.957,79.4109 541.123,74.4109 542.5,69.5 Z"/></g>
<g><path style="opacity:1" fill="#2e2e28" d="M 566.5,84.5 C 568.871,87.1842 571.871,88.5175 575.5,88.5C 575.5,89.5 575.5,90.5 575.5,91.5C 577.39,91.2965 578.89,91.9632 580,93.5C 581.714,89.723 582.381,89.723 582,93.5C 580.294,94.3079 579.461,95.6412 579.5,97.5C 578.833,97.5 578.167,97.5 577.5,97.5C 577.023,95.5357 575.856,94.2023 574,93.5C 570.746,93.797 567.413,94.797 564,96.5C 563.617,95.944 563.117,95.6107 562.5,95.5C 563.794,93.093 565.461,90.9263 567.5,89C 566.906,88.5357 566.239,88.369 565.5,88.5C 566.234,87.2921 566.567,85.9587 566.5,84.5 Z"/></g>
<g><path style="opacity:1" fill="#464744" d="M 591.5,86.5 C 592.021,90.4809 592.354,94.4809 592.5,98.5C 591.833,98.1667 591.167,97.8333 590.5,97.5C 586.467,96.8003 584.134,94.467 583.5,90.5C 585.288,90.7852 586.955,90.4519 588.5,89.5C 588.879,87.7869 589.879,86.7869 591.5,86.5 Z"/></g>
<g><path style="opacity:1" fill="#5c564a" d="M 565.5,88.5 C 566.239,88.369 566.906,88.5357 567.5,89C 565.461,90.9263 563.794,93.093 562.5,95.5C 561.713,97.1042 560.38,97.7709 558.5,97.5C 559.64,100.025 560.307,102.692 560.5,105.5C 559.134,102.829 557.8,100.163 556.5,97.5C 557.091,95.2575 558.091,93.2575 559.5,91.5C 560.911,89.461 562.911,88.461 565.5,88.5 Z"/></g>
<g><path style="opacity:1" fill="#dcc4a7" d="M 626.5,85.5 C 629.243,87.2393 631.243,89.5726 632.5,92.5C 630.938,96.3918 628.605,99.7251 625.5,102.5C 624.527,99.865 622.86,97.865 620.5,96.5C 621.447,93.0664 622.614,89.733 624,86.5C 624.671,85.7476 625.504,85.4142 626.5,85.5 Z"/></g>
<g><path style="opacity:1" fill="#7a7a70" d="M 602.5,64.5 C 603.167,64.5 603.833,64.5 604.5,64.5C 606.556,68.2324 608.056,72.2324 609,76.5C 609.249,75.376 609.749,74.376 610.5,73.5C 612.373,74.0891 614.04,73.4224 615.5,71.5C 615.291,70.914 614.957,70.414 614.5,70C 616.953,68.0249 619.619,66.5249 622.5,65.5C 620.14,67.8652 618.14,70.5319 616.5,73.5C 617.391,74.5896 618.391,74.5896 619.5,73.5C 620.386,74.325 620.719,75.325 620.5,76.5C 619.5,76.5 618.5,76.5 617.5,76.5C 617.414,78.677 616.747,80.677 615.5,82.5C 617.841,83.7115 620.007,83.3782 622,81.5C 622.77,88.1807 620.437,93.514 615,97.5C 614.722,101.553 613.222,105.053 610.5,108C 611.5,108.333 612.5,108.667 613.5,109C 612.316,110.145 612.316,111.312 613.5,112.5C 608.926,115.619 603.926,117.952 598.5,119.5C 598.5,118.5 598.5,117.5 598.5,116.5C 600.5,116.5 602.5,116.5 604.5,116.5C 604.67,115.178 604.337,114.011 603.5,113C 606.464,112.16 606.797,111.16 604.5,110C 606.396,108.935 606.563,108.102 605,107.5C 603.779,108.272 602.779,109.272 602,110.5C 601.75,107.246 600.75,104.246 599,101.5C 597.67,100.418 596.17,99.7512 594.5,99.5C 593.833,99.1667 593.167,98.8333 592.5,98.5C 592.354,94.4809 592.021,90.4809 591.5,86.5C 592.877,84.7105 593.877,82.7105 594.5,80.5C 595.468,78.3926 595.802,76.0593 595.5,73.5C 596.234,74.8775 596.901,76.3775 597.5,78C 596.366,79.016 596.699,79.6827 598.5,80C 595.615,81.9932 593.615,84.6598 592.5,88C 594.037,90.6119 596.037,91.1119 598.5,89.5C 598.5,90.1667 598.833,90.5 599.5,90.5C 598.779,92.5324 597.446,94.699 595.5,97C 598.089,98.6573 600.756,98.9906 603.5,98C 602.397,99.6804 602.73,101.18 604.5,102.5C 607.198,99.0166 608.531,95.0166 608.5,90.5C 608.06,81.4118 606.06,72.7451 602.5,64.5 Z"/></g>
<g><path style="opacity:1" fill="#adb0a9" d="M 599.5,90.5 C 602.354,90.8821 605.354,90.8821 608.5,90.5C 608.531,95.0166 607.198,99.0166 604.5,102.5C 602.73,101.18 602.397,99.6804 603.5,98C 600.756,98.9906 598.089,98.6573 595.5,97C 597.446,94.699 598.779,92.5324 599.5,90.5 Z"/></g>
<g><path style="opacity:1" fill="#8b8372" d="M 560.5,85.5 C 560.611,86.1174 560.944,86.6174 561.5,87C 559.963,88.1096 559.297,89.6096 559.5,91.5C 558.091,93.2575 557.091,95.2575 556.5,97.5C 557.8,100.163 559.134,102.829 560.5,105.5C 561.167,106.833 562.167,107.833 563.5,108.5C 563.5,109.167 563.833,109.5 564.5,109.5C 565.379,111.228 566.046,113.061 566.5,115C 566.472,116.07 566.139,116.903 565.5,117.5C 557.506,115.172 550.839,110.839 545.5,104.5C 546.5,104.5 547.5,104.5 548.5,104.5C 548.431,99.1463 548.098,93.813 547.5,88.5C 548.822,88.33 549.989,88.6634 551,89.5C 551.333,88.8333 551.667,88.1667 552,87.5C 555.507,90.0078 558.341,89.3411 560.5,85.5 Z"/></g>
<g><path style="opacity:1" fill="#9f9884" d="M 554.5,71.5 C 554.227,73.9582 555.227,75.6249 557.5,76.5C 559.45,75.6279 561.45,74.9612 563.5,74.5C 563.543,77.9099 563.043,81.2432 562,84.5C 561.617,85.056 561.117,85.3893 560.5,85.5C 558.341,89.3411 555.507,90.0078 552,87.5C 551.667,88.1667 551.333,88.8333 551,89.5C 549.989,88.6634 548.822,88.33 547.5,88.5C 548.098,93.813 548.431,99.1463 548.5,104.5C 547.5,104.5 546.5,104.5 545.5,104.5C 541.883,101.936 539.216,98.6028 537.5,94.5C 539.749,90.402 542.249,86.402 545,82.5C 545.49,81.2068 545.657,79.8734 545.5,78.5C 547.729,79.0553 549.395,80.3886 550.5,82.5C 551.099,78.4105 552.433,74.7439 554.5,71.5 Z"/></g>
<g><path style="opacity:1" fill="#1e1815" d="M 577.5,97.5 C 572.397,98.5875 567.397,99.5875 562.5,100.5C 562.466,103.199 563.133,105.699 564.5,108C 564.272,108.399 563.938,108.565 563.5,108.5C 562.167,107.833 561.167,106.833 560.5,105.5C 560.307,102.692 559.64,100.025 558.5,97.5C 560.38,97.7709 561.713,97.1042 562.5,95.5C 563.117,95.6107 563.617,95.944 564,96.5C 567.413,94.797 570.746,93.797 574,93.5C 575.856,94.2023 577.023,95.5357 577.5,97.5 Z"/></g>
<g><path style="opacity:1" fill="#e0e1dc" d="M 620.5,96.5 C 622.86,97.865 624.527,99.865 625.5,102.5C 623.431,105.573 620.764,107.906 617.5,109.5C 619.35,105.432 620.35,101.099 620.5,96.5 Z"/></g>
<g><path style="opacity:1" fill="#3e2b2c" d="M 577.5,97.5 C 578.167,97.5 578.833,97.5 579.5,97.5C 581.891,99.3622 584.558,100.696 587.5,101.5C 588.78,102.931 590.447,103.598 592.5,103.5C 592.737,104.791 592.404,105.791 591.5,106.5C 587.634,104.241 583.467,103.907 579,105.5C 578.055,105.095 577.388,104.428 577,103.5C 576.667,104.5 576.333,105.5 576,106.5C 572.97,101.474 568.47,99.4742 562.5,100.5C 567.397,99.5875 572.397,98.5875 577.5,97.5 Z"/></g>
<g><path style="opacity:1" fill="#201f1c" d="M 590.5,97.5 C 591.167,97.8333 591.833,98.1667 592.5,98.5C 593.167,98.8333 593.833,99.1667 594.5,99.5C 596.432,102.177 596.932,105.177 596,108.5C 593.817,111.17 591.317,111.837 588.5,110.5C 590.229,109.764 591.229,108.43 591.5,106.5C 592.404,105.791 592.737,104.791 592.5,103.5C 590.447,103.598 588.78,102.931 587.5,101.5C 589.446,100.965 590.446,99.632 590.5,97.5 Z"/></g>
<g><path style="opacity:1" fill="#52312f" d="M 562.5,100.5 C 568.47,99.4742 572.97,101.474 576,106.5C 576.333,105.5 576.667,104.5 577,103.5C 577.388,104.428 578.055,105.095 579,105.5C 583.467,103.907 587.634,104.241 591.5,106.5C 591.229,108.43 590.229,109.764 588.5,110.5C 580.17,116.137 572.17,115.803 564.5,109.5C 563.833,109.5 563.5,109.167 563.5,108.5C 563.938,108.565 564.272,108.399 564.5,108C 563.133,105.699 562.466,103.199 562.5,100.5 Z"/></g>
<g><path style="opacity:1" fill="#645f55" d="M 594.5,99.5 C 596.17,99.7512 597.67,100.418 599,101.5C 600.75,104.246 601.75,107.246 602,110.5C 602.779,109.272 603.779,108.272 605,107.5C 606.563,108.102 606.396,108.935 604.5,110C 606.797,111.16 606.464,112.16 603.5,113C 604.337,114.011 604.67,115.178 604.5,116.5C 602.5,116.5 600.5,116.5 598.5,116.5C 598.5,117.5 598.5,118.5 598.5,119.5C 587.154,122.556 576.154,121.889 565.5,117.5C 566.139,116.903 566.472,116.07 566.5,115C 566.046,113.061 565.379,111.228 564.5,109.5C 572.17,115.803 580.17,116.137 588.5,110.5C 591.317,111.837 593.817,111.17 596,108.5C 596.932,105.177 596.432,102.177 594.5,99.5 Z"/></g>
<g><path style="opacity:0.986" fill="#4b4b4d" d="M 1169.5,119.5 C 1169.5,120.833 1169.5,122.167 1169.5,123.5C 1122.5,123.5 1075.5,123.5 1028.5,123.5C 1028.5,158.833 1028.5,194.167 1028.5,229.5C 1015.83,229.5 1003.17,229.5 990.5,229.5C 990.5,217.167 990.5,204.833 990.5,192.5C 968.833,192.5 947.167,192.5 925.5,192.5C 925.5,178.833 925.5,165.167 925.5,151.5C 904.167,151.5 882.833,151.5 861.5,151.5C 861.5,149.833 861.5,148.167 861.5,146.5C 779.5,146.5 697.5,146.5 615.5,146.5C 616.512,145.128 617.512,143.795 618.5,142.5C 700.5,142.5 782.5,142.5 864.5,142.5C 864.5,144.5 864.5,146.5 864.5,148.5C 886.167,148.5 907.833,148.5 929.5,148.5C 929.5,161.833 929.5,175.167 929.5,188.5C 950.833,188.5 972.167,188.5 993.5,188.5C 993.5,201.167 993.5,213.833 993.5,226.5C 1004.17,226.5 1014.83,226.5 1025.5,226.5C 1025.5,190.833 1025.5,155.167 1025.5,119.5C 1073.5,119.5 1121.5,119.5 1169.5,119.5 Z"/></g>
<g><path style="opacity:1" fill="#37383b" d="M -0.5,238.5 C -0.5,238.167 -0.5,237.833 -0.5,237.5C 42.1667,237.5 84.8333,237.5 127.5,237.5C 127.5,242.5 127.5,247.5 127.5,252.5C 126.514,248.03 126.181,243.363 126.5,238.5C 84.1667,238.5 41.8333,238.5 -0.5,238.5 Z"/></g>
<g><path style="opacity:0.827" fill="#4d4d4f" d="M 685.5,312.5 C 686.488,307.36 686.821,302.026 686.5,296.5C 847.5,296.5 1008.5,296.5 1169.5,296.5C 1169.5,297.5 1169.5,298.5 1169.5,299.5C 1009.5,299.5 849.5,299.5 689.5,299.5C 689.5,305.167 689.5,310.833 689.5,316.5C 681.5,316.5 673.5,316.5 665.5,316.5C 665.5,310.833 665.5,305.167 665.5,299.5C 548.167,299.5 430.833,299.5 313.5,299.5C 313.5,280.167 313.5,260.833 313.5,241.5C 270.167,241.5 226.833,241.5 183.5,241.5C 183.5,257.833 183.5,274.167 183.5,290.5C 169.5,290.5 155.5,290.5 141.5,290.5C 141.5,278.833 141.5,267.167 141.5,255.5C 135.5,255.5 129.5,255.5 123.5,255.5C 123.5,250.833 123.5,246.167 123.5,241.5C 82.1667,241.5 40.8333,241.5 -0.5,241.5C -0.5,240.5 -0.5,239.5 -0.5,238.5C 41.8333,238.5 84.1667,238.5 126.5,238.5C 126.181,243.363 126.514,248.03 127.5,252.5C 133.167,252.5 138.833,252.5 144.5,252.5C 144.5,263.833 144.5,275.167 144.5,286.5C 156.167,286.5 167.833,286.5 179.5,286.5C 179.5,270.167 179.5,253.833 179.5,237.5C 225.5,237.5 271.5,237.5 317.5,237.5C 317.5,256.833 317.5,276.167 317.5,295.5C 434.5,295.5 551.5,295.5 668.5,295.5C 668.5,301.167 668.5,306.833 668.5,312.5C 674.167,312.5 679.833,312.5 685.5,312.5 Z"/></g>
<g><path style="opacity:1" fill="#424345" d="M 1169.5,295.5 C 1169.5,295.833 1169.5,296.167 1169.5,296.5C 1008.5,296.5 847.5,296.5 686.5,296.5C 686.821,302.026 686.488,307.36 685.5,312.5C 685.5,306.833 685.5,301.167 685.5,295.5C 846.833,295.5 1008.17,295.5 1169.5,295.5 Z"/></g>
<g><path style="opacity:0.916" fill="#4d4d4f" d="M -0.5,387.5 C 37.5049,390.773 75.5049,394.107 113.5,397.5C 113.5,457.5 113.5,517.5 113.5,577.5C 121.5,577.5 129.5,577.5 137.5,577.5C 137.5,773.5 137.5,969.5 137.5,1165.5C 127.833,1165.5 118.167,1165.5 108.5,1165.5C 109.891,1187.19 111.557,1208.86 113.5,1230.5C 75.5,1230.5 37.5,1230.5 -0.5,1230.5C -0.5,1229.17 -0.5,1227.83 -0.5,1226.5C 36.1667,1226.5 72.8333,1226.5 109.5,1226.5C 107.613,1205.19 105.946,1183.85 104.5,1162.5C 114.5,1162.5 124.5,1162.5 134.5,1162.5C 134.833,968.333 134.5,774.333 133.5,580.5C 125.5,580.5 117.5,580.5 109.5,580.5C 109.5,520.5 109.5,460.5 109.5,400.5C 75.6101,398.131 41.7767,395.131 8,391.5C 5.90627,391.536 3.90627,391.869 2,392.5C 1.29464,396.665 0.461311,400.665 -0.5,404.5C -0.5,398.833 -0.5,393.167 -0.5,387.5 Z"/></g>
<g><path style="opacity:1" fill="#202326" d="M 133.5,580.5 C 133.5,774.167 133.5,967.833 133.5,1161.5C 123.652,1161.17 113.986,1161.51 104.5,1162.5C 105.946,1183.85 107.613,1205.19 109.5,1226.5C 72.8333,1226.5 36.1667,1226.5 -0.5,1226.5C -0.5,952.5 -0.5,678.5 -0.5,404.5C 0.461311,400.665 1.29464,396.665 2,392.5C 3.90627,391.869 5.90627,391.536 8,391.5C 41.7767,395.131 75.6101,398.131 109.5,400.5C 109.5,460.5 109.5,520.5 109.5,580.5C 117.5,580.5 125.5,580.5 133.5,580.5 Z"/></g>
<g><path style="opacity:0.953" fill="#4d4d4f" d="M 209.5,397.5 C 458.833,397.5 708.167,397.5 957.5,397.5C 957.5,699.167 957.5,1000.83 957.5,1302.5C 708.258,1265.76 459.091,1228.76 210,1191.5C 209.5,926.834 209.333,662.167 209.5,397.5 Z"/></g>
<g><path style="opacity:1" fill="#26282b" d="M 213.5,401.5 C 213.5,663.833 213.5,926.167 213.5,1188.5C 214.791,1188.26 215.791,1188.6 216.5,1189.5C 215.167,1189.5 213.833,1189.5 212.5,1189.5C 212.167,926.666 212.5,663.999 213.5,401.5 Z"/></g>
<g><path style="opacity:1" fill="#202326" d="M 213.5,401.5 C 460.167,401.5 706.833,401.5 953.5,401.5C 953.5,700.5 953.5,999.5 953.5,1298.5C 707.795,1262.36 462.128,1226.03 216.5,1189.5C 215.791,1188.6 214.791,1188.26 213.5,1188.5C 213.5,926.167 213.5,663.833 213.5,401.5 Z"/></g>
<g><path style="opacity:0.903" fill="#4c4c4e" d="M 1169.5,454.5 C 1169.5,455.5 1169.5,456.5 1169.5,457.5C 1124.5,454.463 1079.5,451.463 1034.5,448.5C 1033.1,732.835 1031.44,1017.17 1029.5,1301.5C 1076.17,1304.74 1122.84,1308.07 1169.5,1311.5C 1169.5,1312.83 1169.5,1314.17 1169.5,1315.5C 1121.78,1311.88 1074.11,1307.88 1026.5,1303.5C 1027.61,1017.19 1029.28,730.854 1031.5,444.5C 1077.49,447.928 1123.49,451.261 1169.5,454.5 Z"/></g>
<g><path style="opacity:1" fill="#202326" d="M 1169.5,457.5 C 1169.5,742.167 1169.5,1026.83 1169.5,1311.5C 1122.84,1308.07 1076.17,1304.74 1029.5,1301.5C 1031.44,1017.17 1033.1,732.835 1034.5,448.5C 1079.5,451.463 1124.5,454.463 1169.5,457.5 Z"/></g>
<g><path style="opacity:1" fill="#2c2e31" d="M 133.5,580.5 C 134.5,774.333 134.833,968.333 134.5,1162.5C 124.5,1162.5 114.5,1162.5 104.5,1162.5C 113.986,1161.51 123.652,1161.17 133.5,1161.5C 133.5,967.833 133.5,774.167 133.5,580.5 Z"/></g>
<g><path style="opacity:0.966" fill="#4d4d4f" d="M -0.5,1311.5 C 389.5,1343.5 779.5,1375.5 1169.5,1407.5C 1169.5,1408.5 1169.5,1409.5 1169.5,1410.5C 779.504,1378.58 389.504,1346.92 -0.5,1315.5C -0.5,1314.17 -0.5,1312.83 -0.5,1311.5 Z"/></g>
<g><path style="opacity:1" fill="#202326" d="M -0.5,1315.5 C 389.504,1346.92 779.504,1378.58 1169.5,1410.5C 1169.5,1427.17 1169.5,1443.83 1169.5,1460.5C 791.167,1460.5 412.833,1460.5 34.5,1460.5C 22.9731,1459.32 11.3064,1458.32 -0.5,1457.5C -0.5,1410.17 -0.5,1362.83 -0.5,1315.5 Z"/></g>
<g><path style="opacity:1" fill="#4a4b4d" d="M -0.5,1457.5 C 11.3064,1458.32 22.9731,1459.32 34.5,1460.5C 22.8333,1460.5 11.1667,1460.5 -0.5,1460.5C -0.5,1459.5 -0.5,1458.5 -0.5,1457.5 Z"/></g>
</svg>
