<svg width="75" height="32" viewBox="0 0 75 32" fill="none" xmlns="http://www.w3.org/2000/svg">
<path d="M5.69401 16.0003C6.19401 14.8535 6.94401 13.9798 7.86067 13.3791C8.77734 12.7784 9.86067 12.4781 11.0551 12.4781C12.2496 12.4781 13.3884 12.7784 14.2773 13.4064C14.4996 13.5702 14.6662 13.7887 14.8329 13.9798C16.4718 13.5156 18.0829 13.0788 19.7218 12.6692C19.5829 12.4235 19.4718 12.1778 19.3051 11.932C18.3884 10.758 17.194 9.82963 15.7496 9.17434C14.3051 8.51905 12.694 8.19141 10.944 8.19141C8.86067 8.19141 6.97179 8.65557 5.30512 9.6112C3.63845 10.5668 2.3329 11.932 1.36068 13.7341C0.610677 15.3177 0.166233 17.0924 0.0273438 19.0583C1.77734 18.3757 3.5829 17.6931 5.38845 17.0378C5.38845 17.0378 5.55512 16.3279 5.69401 16.0003Z" fill="#DAE000"/>
<path d="M5.72222 24.1911C5.22222 23.0443 4.97222 21.6518 4.97222 20.0409C4.97222 18.8942 5.16666 17.8839 5.41666 16.9829C3.61111 17.6382 1.80555 18.2935 0.0555555 19.0034C0.0555555 19.3856 0 19.7406 0 20.1228C0 22.5256 0.472222 24.628 1.38889 26.43C1.72222 27.0853 2.16667 27.6041 2.58333 28.1501C4.08333 27.4675 5.58333 26.8123 7.11111 26.1843C6.55555 25.6382 6.08333 25.0375 5.72222 24.2184V24.1911Z" fill="#78C5E8"/>
<path d="M5.72222 24.1911C5.22222 23.0443 4.97222 21.6518 4.97222 20.0409C4.97222 18.8942 5.16666 17.8839 5.41666 16.9829C3.61111 17.6382 1.80555 18.2935 0.0555555 19.0034C0.0555555 19.3856 0 19.7406 0 20.1228C0 22.5256 0.472222 24.628 1.38889 26.43C1.72222 27.0853 2.16667 27.6041 2.58333 28.1501C4.08333 27.4675 5.58333 26.8123 7.11111 26.1843C6.55555 25.6382 6.08333 25.0375 5.72222 24.2184V24.1911Z" fill="url(#paint0_linear_824_1623)" fill-opacity="0.22"/>
<path d="M15.6393 22.9901H16.5282C16.5282 23.973 16.2782 24.8195 15.8337 25.5294C15.3893 26.2393 14.7782 26.8126 13.9726 27.1949C13.1671 27.5771 12.1948 27.7683 11.1115 27.7683C9.86152 27.7683 8.77818 27.4679 7.86152 26.8672C7.58374 26.6761 7.36152 26.4304 7.11152 26.1847C5.58374 26.8126 4.08374 27.4952 2.58374 28.1505C3.36152 29.1062 4.22263 29.9526 5.27818 30.5532C6.94485 31.5089 8.88929 32.0003 11.0837 32.0003C13.056 32.0003 14.8337 31.6181 16.3615 30.8263C17.8893 30.0345 19.1115 28.915 19.9726 27.4133C20.8337 25.9116 21.2782 24.1915 21.2782 22.1983V21.2427C19.3615 21.7614 17.4726 22.3348 15.6671 22.9355L15.6393 22.9901Z" fill="#045B8D"/>
<path d="M15.6393 22.9901H16.5282C16.5282 23.973 16.2782 24.8195 15.8337 25.5294C15.3893 26.2393 14.7782 26.8126 13.9726 27.1949C13.1671 27.5771 12.1948 27.7683 11.1115 27.7683C9.86152 27.7683 8.77818 27.4679 7.86152 26.8672C7.58374 26.6761 7.36152 26.4304 7.11152 26.1847C5.58374 26.8126 4.08374 27.4952 2.58374 28.1505C3.36152 29.1062 4.22263 29.9526 5.27818 30.5532C6.94485 31.5089 8.88929 32.0003 11.0837 32.0003C13.056 32.0003 14.8337 31.6181 16.3615 30.8263C17.8893 30.0345 19.1115 28.915 19.9726 27.4133C20.8337 25.9116 21.2782 24.1915 21.2782 22.1983V21.2427C19.3615 21.7614 17.4726 22.3348 15.6671 22.9355L15.6393 22.9901Z" fill="url(#paint1_linear_824_1623)" fill-opacity="0.25"/>
<path d="M21.2496 19.3857H11.4163V22.9898H15.6385C17.4718 22.3892 19.3329 21.8158 21.2496 21.297V19.3857Z" fill="#78C5E8"/>
<path d="M62.3982 11.4536H74.9465V14.2509H65.8616V19.3321H74.2805V22.1293H65.8616V27.2106H74.9998V30.0335H62.3982V11.4536Z" fill="white"/>
<path d="M47.696 11.4536H51.3365V27.2106H60.2977V30.0335H47.696V11.4536Z" fill="white"/>
<path d="M31.9443 11.4541H38.9904C40.3893 11.4541 41.5852 11.715 42.5782 12.2368C43.5712 12.7586 44.3224 13.4857 44.8319 14.4182C45.3414 15.342 45.5961 16.407 45.5961 17.6132C45.5961 18.8108 45.337 19.8758 44.819 20.8082C44.3095 21.732 43.5539 22.4549 42.5523 22.9767C41.5506 23.4899 40.3461 23.7466 38.9386 23.7466H35.3119V30.034H31.9443V11.4541ZM38.4723 21.0007C39.6985 21.0007 40.6181 20.697 41.2312 20.0896C41.8442 19.4737 42.1508 18.6482 42.1508 17.6132C42.1508 16.5696 41.8442 15.7483 41.2312 15.1495C40.6181 14.5507 39.6985 14.2513 38.4723 14.2513H35.3119V21.0007H38.4723Z" fill="white"/>
<path d="M29.6537 4.90625C30.3447 3.53834 29.7914 1.8851 28.4172 1.21439C27.0431 0.543672 25.3687 1.10957 24.6776 2.47747C24.4203 2.98672 24.3359 3.53632 24.401 4.05925L24.6505 8.4626C24.655 8.54354 24.7488 8.58931 24.8171 8.54387L28.5369 6.07794C29.0019 5.81377 29.3945 5.41456 29.6518 4.90532L29.6537 4.90625Z" fill="#294C90"/>
<defs>
<linearGradient id="paint0_linear_824_1623" x1="1.38889" y1="17.7475" x2="4.07954" y2="27.3283" gradientUnits="userSpaceOnUse">
<stop/>
<stop offset="0.51176" stop-opacity="0"/>
</linearGradient>
<linearGradient id="paint1_linear_824_1623" x1="12.4999" y1="20.4781" x2="15.188" y2="32.7844" gradientUnits="userSpaceOnUse">
<stop/>
<stop offset="0.72759" stop-opacity="0"/>
</linearGradient>
</defs>
</svg>
