<svg width="160" height="70" viewBox="0 0 160 70" fill="none" xmlns="http://www.w3.org/2000/svg">
<path d="M12.1468 34.9998C13.2135 32.4913 14.8135 30.5801 16.769 29.2661C18.7246 27.9521 21.0357 27.2951 23.5839 27.2951C26.132 27.2951 28.5617 27.9521 30.458 29.3258C30.9321 29.6842 31.2876 30.162 31.6432 30.5801C35.1395 29.5647 38.5765 28.6091 42.0729 27.7132C41.7766 27.1756 41.5395 26.6381 41.184 26.1005C39.2284 23.5323 36.6802 21.5016 33.5987 20.0681C30.5172 18.6347 27.0802 17.918 23.3468 17.918C18.9024 17.918 14.8727 18.9333 11.3172 21.0238C7.7616 23.1142 4.9764 26.1005 2.90232 30.0425C1.30231 33.5067 0.354159 37.3889 0.0578613 41.6892C3.79121 40.1961 7.64308 38.7029 11.4949 37.2695C11.4949 37.2695 11.8505 35.7166 12.1468 34.9998Z" fill="#DAE000"/>
<path d="M12.2075 52.9178C11.1408 50.4093 10.6075 47.3632 10.6075 43.8393C10.6075 41.3308 11.0223 39.1209 11.5556 37.1499C7.70374 38.5833 3.85187 40.0168 0.118519 41.5697C0.118519 42.4059 0 43.1823 0 44.0185C0 49.2744 1.00741 53.8734 2.96298 57.8154C3.67409 59.2488 4.62224 60.3836 5.51113 61.5782C8.71115 60.085 11.9112 58.6516 15.1704 57.2778C13.9852 56.0833 12.9778 54.7693 12.2075 52.9775V52.9178Z" fill="#78C5E8"/>
<path d="M12.2075 52.9178C11.1408 50.4093 10.6075 47.3632 10.6075 43.8393C10.6075 41.3308 11.0223 39.1209 11.5556 37.1499C7.70374 38.5833 3.85187 40.0168 0.118519 41.5697C0.118519 42.4059 0 43.1823 0 44.0185C0 49.2744 1.00741 53.8734 2.96298 57.8154C3.67409 59.2488 4.62224 60.3836 5.51113 61.5782C8.71115 60.085 11.9112 58.6516 15.1704 57.2778C13.9852 56.0833 12.9778 54.7693 12.2075 52.9775V52.9178Z" fill="url(#paint0_linear_1658_2216)" fill-opacity="0.22"/>
<path d="M33.3642 50.2903H35.2605C35.2605 52.4405 34.7271 54.292 33.779 55.8449C32.8308 57.3978 31.5271 58.652 29.8086 59.4882C28.0901 60.3244 26.016 60.7425 23.7049 60.7425C21.0382 60.7425 18.7271 60.0855 16.7715 58.7715C16.1789 58.3534 15.7048 57.8159 15.1715 57.2783C11.9122 58.652 8.71222 60.1452 5.51221 61.5787C7.17147 63.6691 9.00852 65.5206 11.2604 66.8346C14.8159 68.9251 18.9641 70.0001 23.6456 70.0001C27.853 70.0001 31.6456 69.164 34.9049 67.4319C38.1642 65.6998 40.7716 63.251 42.6087 59.966C44.4457 56.6811 45.3939 52.9183 45.3939 48.5582V46.4678C41.3049 47.6026 37.2753 48.8568 33.4234 50.1708L33.3642 50.2903Z" fill="#045B8D"/>
<path d="M33.3642 50.2903H35.2605C35.2605 52.4405 34.7271 54.292 33.779 55.8449C32.8308 57.3978 31.5271 58.652 29.8086 59.4882C28.0901 60.3244 26.016 60.7425 23.7049 60.7425C21.0382 60.7425 18.7271 60.0855 16.7715 58.7715C16.1789 58.3534 15.7048 57.8159 15.1715 57.2783C11.9122 58.652 8.71222 60.1452 5.51221 61.5787C7.17147 63.6691 9.00852 65.5206 11.2604 66.8346C14.8159 68.9251 18.9641 70.0001 23.6456 70.0001C27.853 70.0001 31.6456 69.164 34.9049 67.4319C38.1642 65.6998 40.7716 63.251 42.6087 59.966C44.4457 56.6811 45.3939 52.9183 45.3939 48.5582V46.4678C41.3049 47.6026 37.2753 48.8568 33.4234 50.1708L33.3642 50.2903Z" fill="url(#paint1_linear_1658_2216)" fill-opacity="0.25"/>
<path d="M45.3326 42.4058H24.3547V50.2897H33.3622C37.2733 48.9757 41.2437 47.7214 45.3326 46.5866V42.4058Z" fill="#78C5E8"/>
<path d="M133.116 25.0552H159.886V31.1741H140.505V42.2893H158.465V48.4083H140.505V59.5234H160V65.6985H133.116V25.0552Z" fill="white"/>
<path d="M101.751 25.0552H109.518V59.5234H128.635V65.6985H101.751V25.0552Z" fill="white"/>
<path d="M68.1482 25.0562H83.1799C86.1641 25.0562 88.7154 25.6269 90.8339 26.7683C92.9523 27.9098 94.5549 29.5004 95.6418 31.54C96.7286 33.5609 97.2721 35.8906 97.2721 38.5291C97.2721 41.1488 96.7194 43.4785 95.6142 45.5182C94.5273 47.5391 92.9155 49.1203 90.7786 50.2618C88.6417 51.3845 86.072 51.9459 83.0693 51.9459H75.3324V65.6995H68.1482V25.0562ZM82.0746 45.9392C84.6904 45.9392 86.6523 45.2749 87.9602 43.9463C89.2681 42.599 89.922 40.7933 89.922 38.5291C89.922 36.2462 89.2681 34.4498 87.9602 33.1399C86.6523 31.83 84.6904 31.1751 82.0746 31.1751H75.3324V45.9392H82.0746Z" fill="white"/>
<path d="M63.2607 10.7324C64.735 7.74011 63.5545 4.12366 60.623 2.65647C57.6915 1.18928 54.1194 2.42717 52.6451 5.41947C52.0963 6.53344 51.9162 7.73569 52.055 8.8796L52.5874 18.5119C52.5969 18.689 52.7969 18.7891 52.9426 18.6897L60.8782 13.2955C61.8704 12.7176 62.7078 11.8443 63.2567 10.7304L63.2607 10.7324Z" fill="#294C90"/>
<defs>
<linearGradient id="paint0_linear_1658_2216" x1="2.96298" y1="38.8224" x2="8.97557" y2="59.7019" gradientUnits="userSpaceOnUse">
<stop/>
<stop offset="0.51176" stop-opacity="0"/>
</linearGradient>
<linearGradient id="paint1_linear_1658_2216" x1="26.6668" y1="44.7952" x2="32.6821" y2="71.6523" gradientUnits="userSpaceOnUse">
<stop/>
<stop offset="0.72759" stop-opacity="0"/>
</linearGradient>
</defs>
</svg>
