<svg width="32" height="32" viewBox="0 0 32 32" fill="none" xmlns="http://www.w3.org/2000/svg">
<path fill-rule="evenodd" clip-rule="evenodd" d="M21.3333 13.3333C22.8061 13.3333 24 12.1394 24 10.6667C24 9.19391 22.8061 8 21.3333 8C19.8606 8 18.6667 9.19391 18.6667 10.6667C18.6667 12.1394 19.8606 13.3333 21.3333 13.3333Z" fill="white"/>
<path fill-rule="evenodd" clip-rule="evenodd" d="M2.66666 6.66667C2.66666 4.45753 4.45752 2.66667 6.66666 2.66667H25.3333C27.5425 2.66667 29.3333 4.45753 29.3333 6.66667V25.3333C29.3333 27.5425 27.5425 29.3333 25.3333 29.3333H6.66666C4.45752 29.3333 2.66666 27.5425 2.66666 25.3333V6.66667ZM6.66666 5.33333H25.3333C26.0697 5.33333 26.6667 5.93029 26.6667 6.66667V25.3333C26.6667 25.6372 26.565 25.9173 26.3939 26.1415C26.353 26.0871 26.3088 26.0339 26.2612 25.9819L14.0921 12.7065C12.4557 10.9214 9.62087 10.9883 8.07056 12.8487L5.33332 16.1333V6.66667C5.33332 5.93029 5.93028 5.33333 6.66666 5.33333ZM5.33332 20.2988V25.3333C5.33332 26.0697 5.93028 26.6667 6.66666 26.6667H23.2714L12.1263 14.5084C11.5808 13.9134 10.6359 13.9357 10.1191 14.5558L5.33332 20.2988Z" fill="white"/>
</svg>
